<svg id="Warstwa_1" data-name="Warstwa 1" xmlns="http://www.w3.org/2000/svg" viewBox="0 0 505.31 505.31"><defs><style>.cls-1{fill:#fb7ba2;stroke:#f9f9f9;stroke-width:0.98px;}.cls-1,.cls-2{stroke-miterlimit:10;}.cls-2,.cls-4{fill:#6c6c6c;}.cls-2{stroke:#6c6c6c;stroke-width:0.98px;}.cls-3{fill:#fff;}</style></defs><rect class="cls-1" x="76.95" y="76.56" width="356.33" height="356.33" transform="translate(-107.85 252.94) rotate(-45)"/><path class="cls-2" d="M222.2,67.08a23,23,0,0,1,16.49,6.81,23.34,23.34,0,0,1,5,25.69,21.31,21.31,0,0,1-5,7.4,23.42,23.42,0,0,1-16.49,6.88h-9.41v-.07H209V67.08Zm-3.87,9.34v24.42l10.48-22.75a13.65,13.65,0,0,0-6.61-1.67Zm3.87,28.09a14.07,14.07,0,0,0,10.28-23.62l-10.94,23.62Z" transform="translate(-2.46 -2.06)"/><path class="cls-2" d="M302,90.44a24.22,24.22,0,1,1-24.22-24.23A24.26,24.26,0,0,1,302,90.44Zm-38.83,0a14.61,14.61,0,1,0,14.61-14.62A14.61,14.61,0,0,0,263.17,90.44Zm8.41,0a6.21,6.21,0,1,0,6.2-6.21A6,6,0,0,0,271.58,90.44Z" transform="translate(-2.46 -2.06)"/><path class="cls-3" d="M165.37,165.26l-.1.32s.74,2.07,2.22,6.14A27,27,0,0,1,169,179a17.77,17.77,0,0,1-.73,5,19.62,19.62,0,0,1-2.13,4.7,11.11,11.11,0,0,1-3.83,3.72,9.13,9.13,0,0,1-4.68,1.46c-1.5,0-2.56,0-3.19-.08a4.91,4.91,0,0,1-3.92-1.91.88.88,0,0,1,1-1,9,9,0,0,1,2.75.6,9.74,9.74,0,0,0,3.28.61,5.32,5.32,0,0,0,3.33-1.48,9.82,9.82,0,0,0,2.72-3.66,21.22,21.22,0,0,0,1.89-8.3,23.37,23.37,0,0,0-1.42-7.88,37.45,37.45,0,0,0-3.47-7.32c-1.37-2.2-2.73-4.41-4.09-6.61q-4.87-7.86-4.87-14.86a11.32,11.32,0,0,1,4.26-9.26A8.49,8.49,0,0,1,161.3,131a7,7,0,0,1,2.55.64,3.61,3.61,0,0,1,1.9,1.34l-.57.9a5,5,0,0,1-3.17-.82,5.84,5.84,0,0,0-4,1.44,8.63,8.63,0,0,0-3.12,6.92,18.8,18.8,0,0,0,.62,5.24c.4,1.39.72,2.44.94,3.17a18.6,18.6,0,0,0,1.18,2.76l1.26,2.49c.26.55.78,1.44,1.55,2.69s1.28,2,1.52,2.41.82,1.24,1.75,2.62S165.21,165,165.37,165.26Z" transform="translate(-2.46 -2.06)"/><path class="cls-3" d="M194.2,163.44q0,.81-6.31,1.55t-8.67.74a7.53,7.53,0,0,1-3-.37,1.11,1.11,0,0,1-.66-1c0-.55,2.13-1.06,6.38-1.56s7.12-.74,8.6-.74C193,162.07,194.2,162.53,194.2,163.44Zm-6.76,28.75-3-.08a2.73,2.73,0,0,0-1.33.49,2.88,2.88,0,0,1-1.46.48,2.33,2.33,0,0,1-1.35-.5,1.45,1.45,0,0,1-.69-1.17l.57-3.62-.94-22.6-1-33.31c0-.54.43-.81,1.28-.81,1.23,0,1.84.48,1.84,1.44q0,18.39.48,23.32t.47,6.09c0,.78-.07,1.81-.19,3.11l.28.31c-.12,1.4-.19,2.82-.19,4.26s.17,4.2.5,8.27.53,7,.59,8.68a2.57,2.57,0,0,0-.38,1.59,2,2,0,0,0,.45,1.52,3.18,3.18,0,0,0,1.92.39,2.87,2.87,0,0,0,2-.51h3.59c.89.37,1.33.78,1.33,1.25,0,1-.44,1.55-1.33,1.55a7.19,7.19,0,0,1-1.46-.31A7.26,7.26,0,0,1,187.44,192.19Z" transform="translate(-2.46 -2.06)"/><path class="cls-3" d="M223.74,168.14l-.9,10.27.19.32a18.13,18.13,0,0,0-.76,4.82,10.64,10.64,0,0,1-1,4.42,12.27,12.27,0,0,1-3.1,4.08,6.56,6.56,0,0,1-4.42,1.81,7.31,7.31,0,0,1-4.4-1.48,12.26,12.26,0,0,1-3.38-3.79,28.2,28.2,0,0,1-2.36-5.49,50.68,50.68,0,0,1-1.58-6.22q-.57-3.06-.95-6.32a92.25,92.25,0,0,1-.56-9.44q0-4,.42-9.08t.47-6.58c0-1,.07-1.85.1-2.61s.11-1.65.23-2.7a22.69,22.69,0,0,1,.5-2.76,13,13,0,0,1,.92-2.43,7,7,0,0,1,1.52-2.07,7.91,7.91,0,0,1,5.55-1.82,10.15,10.15,0,0,1,5.88,1.59c.22.29.8.92,1.73,1.91a12.37,12.37,0,0,1,2.08,2.82,29.13,29.13,0,0,1,1.53,6.59A145.37,145.37,0,0,1,223.74,168.14Zm-13.38-35q-7.12,0-7.13,23.61v3.12a75.21,75.21,0,0,0,1,11.88,96,96,0,0,0,2.13,10.33,21.38,21.38,0,0,0,3.12,6.77q2,2.81,4.47,2.8,3.3,0,4.82-5.54a50.56,50.56,0,0,0,1.79-9.86c.22-4,.33-6.51.33-7.71v-1.9c0-1,0-1.83,0-2.51s0-1.82-.07-3.39-.09-3-.19-4.18-.22-2.7-.38-4.44a43.31,43.31,0,0,0-.66-4.65c-.28-1.36-.61-2.81-1-4.35a20.26,20.26,0,0,0-1.32-4,21.29,21.29,0,0,0-1.77-3.11A6.11,6.11,0,0,0,210.36,133.13Z" transform="translate(-2.46 -2.06)"/><path class="cls-3" d="M249.74,151.22l-.1.15a19.19,19.19,0,0,0-.38,4,24.41,24.41,0,0,1-.85,5.76q-.79,3.09-1.91,14.8t-1.11,16c0,.19-.19.44-.57.78a1.78,1.78,0,0,1-1.2.51,1.59,1.59,0,0,1-1.16-.53,2.94,2.94,0,0,1-.73-1.51,17.62,17.62,0,0,1-.31-1.74c-.07-.85-.11-1.86-.14-3a26.32,26.32,0,0,0-.36-3.58c-.2-1.22-.48-2.59-.83-4.1s-.6-2.78-.78-3.78-.76-5-1.77-12.12q-4-28.12-5.1-29.53a2.15,2.15,0,0,1,1.86-1,2.12,2.12,0,0,1,1.87,1.46,13.31,13.31,0,0,1,1.06,3.83c.24,1.59.42,3.1.55,4.56s.23,2.91.31,4.39.23,3.24.47,5.29,1,6.59,2.22,13.62,2.07,11.94,2.48,14.75h.19a58.79,58.79,0,0,1,.73-8.66q.73-4.89.88-6.13a23.47,23.47,0,0,1,.59-3,20,20,0,0,0,.54-2.84c.06-.69.2-2.66.4-5.9s.37-5.35.5-6.34.29-2.07.5-3.25a17.57,17.57,0,0,0,.3-2.74l-.09-1.44c0-.67.45-1.19,1.37-1.56,1.92,0,2.88.47,2.88,1.4l-.47,1.05q0,8.88,4,21.17t4,20.74l.29.15a29.58,29.58,0,0,0,.54-4.78q.26-3.86,1.51-11.91t1.49-11.36c.16-2.2.58-5.63,1.26-10.27a81,81,0,0,0,1-10.74l-.09-1.52c0-1.27.83-1.9,2.5-1.9a2.34,2.34,0,0,1,1.23.37,1.14,1.14,0,0,1,.62,1c0,.44-.35.89-1,1.36a1.05,1.05,0,0,1,.09.51,7.37,7.37,0,0,1-.38,1.75q-.66,4.62-1.91,17.56a214.05,214.05,0,0,1-3.17,22.22,77.58,77.58,0,0,0-1.91,15v1.16a2.65,2.65,0,0,1-.33,1.44,1.6,1.6,0,0,1-1.42.51q-2.26,0-3.5-12.26a123.81,123.81,0,0,0-3-14.16q-2.62-10.47-3.38-15.45ZM259.9,183c-.13,0-.19,0-.19.11Z" transform="translate(-2.46 -2.06)"/><path class="cls-3" d="M303.19,187.87l.29,2.88c0,1.55-.82,2.33-2.46,2.33-1.13,0-1.91-1-2.32-3-.22-.94-.34-1.46-.38-1.56q-9.45-24.56-11.91-35.87a6.22,6.22,0,0,1-.14-1.09,3,3,0,0,0-.9-2.26l.19-.39c-.41-2-.71-3.34-.92-4.1l-.68-2.59a22.53,22.53,0,0,0-1.71-4.55,16.91,16.91,0,0,0-.28,2.49,3.55,3.55,0,0,0,.19,1.32,17.59,17.59,0,0,0-.66,5.53v21.82q0,3.82.66,11.36t.66,11.36l-.66.63h-2.22l-.29-.63a14.91,14.91,0,0,0,.19-3.19l-1.08-27.74V150.21l.71-15.06-.1-1.67a1.35,1.35,0,0,1,.64-1.34,3.62,3.62,0,0,1,1.65-.33,3.27,3.27,0,0,1,1.78.48,1.71,1.71,0,0,1,.75,1.54,7,7,0,0,0,.43,2.29,19.64,19.64,0,0,0,1.23,2.79,22.22,22.22,0,0,1,1.25,2.8,22.69,22.69,0,0,1,.83,4,49.77,49.77,0,0,0,.89,4.92q.53,2.15,1.71,5.76c.78,2.41,1.69,5.09,2.71,8s1.68,4.85,2,5.77.66,2.1,1.13,3.53A27.72,27.72,0,0,1,298,180a6.93,6.93,0,0,1,1,3.15,4.52,4.52,0,0,0,1.59,3.19,8.53,8.53,0,0,0,.61-3.81l.38-27.74-.28-12.33.28-3c0-.57-.1-.91-.28-1l.28-.66a35.79,35.79,0,0,0-.38-6.54c.25-.72,1.06-1.09,2.41-1.09q1.56,0,1.56,2.61a5,5,0,0,0-.61,2.64l.09,2.69a5.51,5.51,0,0,1-.38,2.41L304,165.65a16.44,16.44,0,0,0,.19,2.14l-.19.35v10l.19,3q0,4.74-.95,6.53Z" transform="translate(-2.46 -2.06)"/><path class="cls-3" d="M327.35,191.88l-3.08-.39a3.55,3.55,0,0,0-2.22.93c-1.45,0-2.36-.21-2.74-.62h-.23c-3,0-4.68-.46-5.16-1.36,0-.6.74-.9,2.23-.9l2.12.08c1.29,0,2-.77,2-2.3a52.44,52.44,0,0,0-.26-5.6c-.21-2.2-.33-4.39-.38-6.57s-.23-6.42-.54-12.73-.52-10.82-.62-13.57l.1-9.34a20.21,20.21,0,0,0-.29-4.63l-3.31.58c-.69,0-1-.37-1-1.11s1.42-1.35,4.26-1.83a43.62,43.62,0,0,1,5.76-.71c1.71,0,2.56.43,2.56,1.3s-.4,1.3-1.19,1.3l-2.31-.08c-1.1,0-1.77.43-2,1.29a31.33,31.33,0,0,0-.33,6.18q0,5.14,1.21,20.35t1.2,22.88l-.09,4.12,3.5-.23c1.67,0,2.5.66,2.5,2Z" transform="translate(-2.46 -2.06)"/><path class="cls-3" d="M342.28,189.81l5.82-.27q4.53,0,4.53,1.29a4.08,4.08,0,0,1-2.88,1.49,25.62,25.62,0,0,1-4,.33h-2.26c-2.9,0-4.57-.18-5-.56a1.59,1.59,0,0,1-.66-1.19l.9-3v-.16a15.26,15.26,0,0,1-.38-3.5l.48-8.13-.57-17,.47-15.84a21.83,21.83,0,0,0-.61-4.26,27.57,27.57,0,0,1-.67-4.14l1.75-2.22,6.76-.7.33.23c1.52,0,2.39.17,2.63.49a1.75,1.75,0,0,1,.35,1c0,1-1.17,1.52-3.5,1.52l-2.6-.16c-1.41,0-2.12.31-2.12.94l.75,13.54-.47,10-.19.15.57.27,5.34-.81a2,2,0,0,1,1.13.44,1.23,1.23,0,0,1,.62.92q0,1.59-1.47,1.59l-2.22-.07c-2.46,0-3.68.5-3.68,1.51l.7,6.7-.33.46v16.19a3.21,3.21,0,0,1,.52,2.22Z" transform="translate(-2.46 -2.06)"/><path class="cls-4" d="M332,231.11s4.36-8.89-1.46-10.08S300,245.34,296.23,249.78s-13.38,11.48-42.78,55.83-31.72,56.21-36.08,57.1-9.9-4.15-18.63,0-13.09,12.74-18.33,22.23-9,13.92-14.26,16.89c-5.86,3.31,4.63,2.34,11.06,3.56,10.42,2,25.9,1.9,31.72-.59,5.53-2.37,12.51-12.16,13.67-22.23s-1.45-11.56.88-14.82,63.73-64.32,80.9-89.22S331.05,233.65,332,231.11Z" transform="translate(-2.46 -2.06)"/><path class="cls-3" d="M159.81,245.28a41.57,41.57,0,0,1,5.27-4.31c-4.44-6.75-7-12.77-4.93-16.2,1.87-3.14,3.11-3.9,3.88-3.88.26-.16.53-.32.83-.48,4.39-2.44,12.65,2.49,21.27,9.36,2.08-1,3-1,4.5,0s.27,2.8-.28,3.46c7.22,6.16,14.28,13,19.12,17.51,11.59,10.7,24.1,26.51,31.33,32.83,1.83,1.61,1.86,3.2,1,4.66A257.47,257.47,0,0,1,258,309.81c6.93,9.94,47,48.19,47,48.19l-1.2,2.11c14.15,20.18,24.91,16.4,24.91,16.4-3,15.66,9.72,35.1,9.72,35.1-15.36-14.45-36.74-16.86-36.74-16.86a33.67,33.67,0,0,0-12.35-25.3c-2.41-2.11-3.92,0-5.72,0s-2.71-4.82-6.93-10.24-16.87-21.09-31.33-34A178.57,178.57,0,0,1,225.21,304c-1.32.47-2.74.19-4.22-1.41-6.53-7-21.52-20.4-31.86-32.31-5.26-6.07-14-15.53-20.65-24.49l-2.55,1.46c4.69,4.52,28.63,34.42,33.82,42.26,5.31,8-4.12,4.32-4.12,4.32-9.17-13.75-33.26-41.92-35.73-46.54C159.25,246.1,159.34,245.5,159.81,245.28Z" transform="translate(-2.46 -2.06)"/></svg>