<?xml version="1.0" standalone="no"?>
<!DOCTYPE svg PUBLIC "-//W3C//DTD SVG 20010904//EN"
 "http://www.w3.org/TR/2001/REC-SVG-20010904/DTD/svg10.dtd">
<svg version="1.0" xmlns="http://www.w3.org/2000/svg"
 width="700.000000pt" height="700.000000pt" viewBox="0 0 700.000000 700.000000"
 preserveAspectRatio="xMidYMid meet">
<metadata>
Created by potrace 1.11, written by Peter Selinger 2001-2013
</metadata>
<g transform="translate(0.000000,700.000000) scale(0.100000,-0.100000)"
fill="#000000" stroke="none">
<path d="M1755 5240 l-1740 -1740 1743 -1743 1742 -1742 1742 1742 1743 1743
-1740 1740 c-957 957 -1742 1740 -1745 1740 -3 0 -788 -783 -1745 -1740z
m1937 -45 c-2 -11 -14 -112 -27 -225 -13 -113 -35 -272 -49 -355 -14 -82 -27
-172 -28 -200 -2 -38 -7 -51 -20 -53 -19 -4 -32 35 -43 128 -6 52 -80 398 -92
430 -12 31 -73 -422 -73 -537 0 -16 -6 -23 -19 -23 -20 0 -31 34 -31 99 0 20
-4 52 -10 71 -5 19 -23 130 -40 245 -30 208 -56 364 -66 398 -4 12 0 17 15 17
27 0 38 -40 51 -180 9 -102 66 -470 74 -477 5 -5 38 244 55 412 15 148 17 160
36 160 18 0 21 -9 26 -75 8 -86 20 -141 56 -260 14 -47 34 -130 43 -185 16
-95 18 -98 23 -55 3 25 16 122 27 215 12 94 28 219 36 278 8 59 14 125 14 146
0 42 7 53 30 48 9 -1 14 -11 12 -22z m491 -5 c-1 -14 -5 -189 -8 -390 -7 -323
-9 -387 -14 -431 0 -6 -10 -9 -21 -7 -22 3 -27 14 -127 303 -25 72 -63 200
-84 284 -21 85 -43 159 -48 164 -23 23 -26 -428 -5 -670 6 -67 5 -73 -12 -73
-16 0 -20 7 -20 43 0 23 -3 161 -7 307 -4 146 -4 312 0 370 8 103 9 105 33
105 19 0 26 -6 30 -30 4 -16 14 -44 23 -60 8 -17 21 -60 27 -95 6 -36 42 -159
79 -275 37 -115 72 -225 77 -244 5 -19 14 -36 20 -38 12 -4 24 363 20 622 -1
72 0 134 2 138 9 19 37 0 35 -23z m-1937 5 c18 -15 16 -15 -23 -10 -36 6 -45
3 -75 -23 -32 -29 -33 -33 -33 -104 0 -82 23 -143 95 -254 50 -76 90 -192 90
-258 0 -68 -38 -149 -82 -176 -35 -21 -121 -27 -148 -10 -24 15 -5 21 37 12
86 -20 142 43 151 168 5 80 -17 150 -83 255 -101 162 -127 268 -85 342 37 67
110 94 156 58z m228 -31 c3 -26 6 -108 6 -183 0 -75 3 -153 6 -173 l7 -38 72
7 c45 3 75 2 79 -5 7 -11 -15 -18 -96 -27 l-58 -7 1 -87 c1 -47 4 -124 7 -171
l7 -85 58 3 c47 3 57 1 57 -12 0 -12 -11 -16 -49 -16 -27 0 -62 -3 -79 -6
l-30 -6 -1 143 c-1 79 -4 165 -7 192 -6 41 -9 47 -31 47 -14 0 -21 4 -18 10 3
6 15 10 27 10 20 0 20 2 13 225 -6 195 -5 225 8 225 9 0 16 -15 21 -46z m477
23 c46 -30 65 -74 84 -187 24 -147 29 -292 15 -425 -13 -135 -25 -172 -65
-203 -40 -32 -87 -29 -129 9 -87 76 -123 313 -97 635 6 60 15 122 22 138 26
57 110 73 170 33z m1532 -2 c-1 -5 -17 -12 -35 -15 l-33 -5 -3 -105 c-1 -58 4
-201 13 -318 8 -117 15 -239 15 -272 l0 -60 34 0 c36 0 57 -17 38 -29 -18 -11
-173 -4 -185 8 -8 8 -1 11 26 11 25 0 39 6 46 18 6 11 6 70 1 157 -5 77 -12
240 -16 363 l-7 222 -31 0 c-22 0 -27 3 -19 11 24 24 161 36 156 14z m316 -1
c13 -11 -18 -24 -59 -24 l-49 0 2 -176 1 -175 48 6 c40 6 48 4 48 -9 0 -11 -9
-16 -33 -16 -61 0 -62 -5 -59 -207 l3 -183 62 0 c34 0 68 -4 76 -9 30 -19
-108 -40 -164 -25 -20 5 -20 12 -17 356 2 193 -1 370 -6 393 -11 54 2 72 54
77 35 4 84 0 93 -8z m-2458 -1215 c19 -7 72 -37 118 -67 54 -36 96 -56 115
-56 26 -1 31 -5 31 -27 0 -19 17 -41 65 -84 228 -206 653 -654 648 -684 -2
-11 24 -52 63 -102 36 -46 92 -122 124 -168 74 -106 171 -210 453 -487 177
-173 224 -225 219 -239 -5 -12 6 -34 39 -74 88 -107 183 -170 257 -171 l37 0
0 -63 c0 -84 30 -197 80 -303 35 -76 37 -84 17 -70 -111 80 -269 151 -394 177
l-60 12 -12 66 c-17 90 -65 184 -128 249 -46 47 -57 53 -80 47 -15 -3 -32 -7
-37 -8 -5 -1 -24 25 -43 58 -61 107 -182 245 -422 485 -130 129 -260 263 -289
296 -33 38 -63 64 -80 67 -49 10 -537 520 -728 761 -24 31 -35 37 -52 32 -22
-7 -22 -8 13 -49 20 -23 105 -128 190 -233 251 -312 297 -384 246 -384 -37 0
-52 13 -135 124 -46 61 -154 199 -240 306 -85 107 -161 206 -168 219 -12 22
-10 26 26 57 l38 33 -36 72 c-52 105 -48 160 17 199 37 23 60 25 108 9z"/>
<path d="M2835 5164 c-39 -42 -50 -111 -50 -314 0 -259 35 -409 107 -463 52
-39 92 -4 119 103 22 85 19 423 -4 520 -22 90 -52 147 -89 166 -38 20 -56 18
-83 -12z"/>
</g>
</svg>
