<svg id="Warstwa_1" data-name="Warstwa 1" xmlns="http://www.w3.org/2000/svg" viewBox="0 0 276.96 249.09"><defs><style>.cls-1{fill:#fb7ba2;}.cls-2{fill:#6c6c6c;}</style></defs><path class="cls-1" d="M30.43,194.83c-6.54,25.1,12.39,50.08,36.13,56.91,12.71,3.65,26.77,2.54,39.24-1.5,12.14-3.92,23.21-10.22,33.39-17.82,11.67-8.72,22.41-18.57,33.92-27.49l-2.53,2a123.11,123.11,0,0,1,26.54-16.15l-3,1.26a72.53,72.53,0,0,1,18.15-5.15l-3.33.45a54.84,54.84,0,0,1,14.31-.08l-3.32-.45a51.54,51.54,0,0,1,12.73,3.47l-3-1.26a54.07,54.07,0,0,1,11.75,6.82l-2.53-2a52.54,52.54,0,0,1,9.35,9.32l-1.95-2.53a50,50,0,0,1,6.33,10.86l-1.26-3a53.23,53.23,0,0,1,3.6,13.34l-.45-3.32a53.72,53.72,0,0,1,0,13.82L255,229a51.44,51.44,0,0,1-3.24,12.18c-1.13,2.8-.2,7.14,1.26,9.63a12.5,12.5,0,0,0,17.1,4.48l2.53-1.95a12.55,12.55,0,0,0,3.22-5.52A60.85,60.85,0,0,0,280,226.25a62.55,62.55,0,0,0-3.45-21.74,59.82,59.82,0,0,0-11.88-20.65,64.3,64.3,0,0,0-34.7-20.63,68.72,68.72,0,0,0-12.05-1.43,74,74,0,0,0-13.11,1.07c-7.5,1.12-14.56,3.75-21.48,6.8a110.35,110.35,0,0,0-17.82,10.12c-13.7,9.43-25.8,20.93-38.94,31.09l2.53-1.95c-8.14,6.27-16.73,11.93-26.21,16l3-1.26a74.4,74.4,0,0,1-18.55,5.24l3.32-.45a55.51,55.51,0,0,1-14.34.07l3.33.45a43,43,0,0,1-10.75-2.87l3,1.26a42.3,42.3,0,0,1-8.93-5.23l2.52,1.95a43.16,43.16,0,0,1-7.58-7.52l1.95,2.53a39.08,39.08,0,0,1-5-8.41l1.26,3a32.77,32.77,0,0,1-2.2-7.9l.44,3.33a29.42,29.42,0,0,1,0-7.5l-.45,3.32a30.62,30.62,0,0,1,.69-3.43,13,13,0,0,0-1.26-9.63,12.51,12.51,0,0,0-17.11-4.48,12.91,12.91,0,0,0-5.74,7.47Z" transform="translate(-3.02 -7.89)"/><path class="cls-2" d="M184.79,18.87s4.74-9.65-1.57-10.93S150.08,34.3,146,39.12s-14.52,12.45-46.4,60.55-34.4,61-39.13,61.93-10.74-4.5-20.2,0S26,175.42,20.35,185.71,10.59,200.81,4.88,204c-6.34,3.59,5,2.53,12,3.86C28.19,210,45,210,51.28,207.25c6-2.57,13.57-13.18,14.84-24.11s-1.58-12.54.94-16.08,69.13-69.75,87.75-96.76S183.74,21.63,184.79,18.87Z" transform="translate(-3.02 -7.89)"/></svg>