<svg id="Warstwa_1" data-name="Warstwa 1" xmlns="http://www.w3.org/2000/svg" viewBox="0 0 267.41 272.39"><defs><style>.cls-1{fill:#fb7ba2;}.cls-2{fill:#6c6c6c;}</style></defs><path class="cls-1" d="M201.6,34.62a43.9,43.9,0,0,0-5.76-4.71c4.85-7.38,7.63-13.95,5.39-17.7C199.19,8.78,197.84,8,197,8l-.91-.52c-4.79-2.67-13.83,2.72-23.24,10.23-2.27-1.05-3.31-1.13-4.91,0s-.3,3.07.3,3.79c-7.88,6.72-15.59,14.24-20.89,19.13C134.69,52.3,121,69.57,113.13,76.48c-2,1.76-2,3.5-1,5.09C105.59,89,99.35,98,94.38,105.11,86.81,116,43.05,157.75,43.05,157.75l1.32,2.31C28.9,182.1,17.15,178,17.15,178c3.29,17.11-10.62,38.35-10.62,38.35,16.78-15.79,40.14-18.43,40.14-18.43a36.79,36.79,0,0,1,13.49-27.63c2.63-2.31,4.28,0,6.25,0s3-5.27,7.57-11.19,18.43-23,34.22-37.18a193.8,193.8,0,0,0,22-23.11c1.44.52,3,.21,4.61-1.53,7.13-7.7,23.51-22.29,34.8-35.3,5.75-6.63,15.31-17,22.57-26.76l2.78,1.6C189.79,41.73,163.65,74.39,158,83c-5.79,8.75,4.5,4.71,4.5,4.71,10-15,36.34-45.79,39-50.84C202.22,35.51,202.12,34.86,201.6,34.62Z" transform="translate(-6.53 -6.75)"/><path class="cls-2" d="M24.39,217c-6.54,25.1,12.39,50.08,36.13,56.91,12.71,3.65,26.77,2.54,39.24-1.5a115.43,115.43,0,0,0,33.39-17.82c11.67-8.72,22.41-18.57,33.92-27.49l-2.53,2a122.87,122.87,0,0,1,26.54-16.15l-3,1.26A72.58,72.58,0,0,1,206.23,209l-3.32.45a54.84,54.84,0,0,1,14.31-.08l-3.33-.45a51.62,51.62,0,0,1,12.74,3.47l-3-1.26A53.6,53.6,0,0,1,235.39,218l-2.52-2a53.21,53.21,0,0,1,9.35,9.32l-1.95-2.53a50.38,50.38,0,0,1,6.33,10.86l-1.26-3a53.23,53.23,0,0,1,3.6,13.34l-.45-3.32a54.17,54.17,0,0,1,0,13.82l.44-3.32a51.42,51.42,0,0,1-3.23,12.18c-1.14,2.8-.2,7.14,1.26,9.63a12.5,12.5,0,0,0,17.1,4.48l2.53-2a12.44,12.44,0,0,0,3.21-5.52,60.64,60.64,0,0,0,4.15-21.59,62.55,62.55,0,0,0-3.45-21.74A59.63,59.63,0,0,0,258.59,206a64.22,64.22,0,0,0-34.69-20.63A68.83,68.83,0,0,0,211.85,184,73.87,73.87,0,0,0,198.74,185c-7.5,1.12-14.56,3.75-21.48,6.8A109.92,109.92,0,0,0,159.44,202c-13.71,9.43-25.8,20.93-38.94,31.09l2.53-1.95c-8.14,6.27-16.73,11.93-26.22,16l3-1.26A74.36,74.36,0,0,1,81.24,251l3.33-.45a55.51,55.51,0,0,1-14.34.07l3.32.45a43.07,43.07,0,0,1-10.74-2.87l3,1.26a42.37,42.37,0,0,1-8.94-5.23l2.53,1.95a43.16,43.16,0,0,1-7.58-7.52l1.95,2.53a38.28,38.28,0,0,1-5-8.41l1.26,3a32.79,32.79,0,0,1-2.21-7.9l.45,3.33a29,29,0,0,1,0-7.5l-.45,3.32a30.59,30.59,0,0,1,.68-3.43A13,13,0,0,0,47.23,214a12.5,12.5,0,0,0-17.1-4.48A12.87,12.87,0,0,0,24.39,217Z" transform="translate(-6.53 -6.75)"/></svg>